<?xml version="1.0" ?><svg height="256" viewBox="0 0 256 256" width="256" xmlns="http://www.w3.org/2000/svg"><title/><g id="apk"><g><polygon points="84.775 127.406 80.521 139.094 89.115 139.094 84.775 127.406"/><path d="M184,168a8.009,8.009,0,0,0,8-8V112a8.009,8.009,0,0,0-8-8H48a8.009,8.009,0,0,0-8,8v48a8.009,8.009,0,0,0,8,8Zm-49.929-47.941h6.359v13.986l12.848-13.986h8.551l-11.859,12.268,12.5,19.229h-8.229l-8.658-14.781-5.156,5.264v9.518h-6.359Zm-29.653,0h10.205a37.021,37.021,0,0,1,7.563.473,8.26,8.26,0,0,1,4.533,3.083,9.779,9.779,0,0,1,1.826,6.134,10.277,10.277,0,0,1-1.053,4.877,8.641,8.641,0,0,1-2.675,3.1,9.213,9.213,0,0,1-3.3,1.493,36.3,36.3,0,0,1-6.6.451h-4.146v11.881h-6.359Zm-22.929,0h6.725l12.611,31.5H93.906l-2.75-7.154H78.566l-2.6,7.154H69.221Z"/><path d="M119.285,133.83a4.174,4.174,0,0,0,1.987-1.547,4.236,4.236,0,0,0,.72-2.449,4.071,4.071,0,0,0-1.01-2.836,4.4,4.4,0,0,0-2.557-1.4,30.593,30.593,0,0,0-4.576-.215h-3.072v8.938h3.48A16.441,16.441,0,0,0,119.285,133.83Z"/><path d="M200,8H64A16.018,16.018,0,0,0,48,24V96h8V24a8.009,8.009,0,0,1,8-8H200a8.009,8.009,0,0,1,8,8V191.029a8.113,8.113,0,0,1-.065.971H172a12.014,12.014,0,0,0-12,12v35.935a8.113,8.113,0,0,1-.971.065H64a8.009,8.009,0,0,1-8-8V176H48v56a16.018,16.018,0,0,0,16,16h95.029a15.9,15.9,0,0,0,11.314-4.686l40.971-40.971A15.9,15.9,0,0,0,216,191.029V24A16.018,16.018,0,0,0,200,8Z"/></g></g></svg>